<svg version="1.1" id="Layer_1" xmlns="http://www.w3.org/2000/svg" xmlns:xlink="http://www.w3.org/1999/xlink" x="0px" y="0px"
	 width="100%" viewBox="0 0 1094 198" enable-background="new 0 0 1094 198" xml:space="preserve">
<path fill="#000000" opacity="1.000000" stroke="none" 
	d="
M1095.000000,71.999985 
	C1095.000000,114.302452 1095.000000,156.604904 1095.000000,199.000000 
	C937.645813,199.000000 780.291565,199.000000 622.128601,198.743546 
	C621.774780,198.033264 622.151123,197.344833 622.696777,197.162125 
	C627.780884,195.459778 630.190430,191.337799 630.850769,186.628036 
	C631.608154,181.225418 630.979553,176.089233 625.324280,172.593582 
	C615.642517,166.609131 605.334229,169.928711 595.000000,168.954544 
	C595.000000,179.465546 595.000000,189.232773 595.000000,199.000000 
	C588.645569,199.000000 582.291199,199.000000 575.467896,198.624237 
	C573.151672,194.933670 571.304382,191.618881 569.538391,188.449936 
	C573.718262,185.588669 575.847473,181.717377 574.889160,176.699844 
	C574.074097,172.432648 570.772644,169.507843 566.859619,169.238861 
	C558.351807,168.654037 549.776123,169.058380 541.000000,169.058380 
	C541.000000,179.466278 541.000000,189.233139 541.000000,199.000000 
	C535.645081,199.000000 530.290100,199.000000 524.464355,198.627075 
	C519.230103,189.283157 514.583008,180.247345 509.642517,171.374924 
	C507.819855,168.101639 501.679352,167.636597 499.955261,170.716293 
	C494.747070,180.019302 489.954529,189.554993 485.000000,199.000000 
	C478.312347,199.000000 471.624725,199.000000 464.169067,198.668060 
	C466.486450,188.776596 469.571777,179.217087 472.817047,169.162125 
	C469.458221,169.162125 467.506989,169.162125 465.453003,169.162125 
	C463.399261,175.690887 461.382721,182.101349 459.294891,188.738434 
	C458.858917,188.053070 458.265839,187.457611 458.065002,186.750687 
	C456.646820,181.759735 455.327576,176.740799 453.939636,171.741089 
	C452.950684,168.178680 449.921844,168.611984 447.551117,169.169006 
	C446.166992,169.494217 444.577759,171.295090 444.111847,172.759995 
	C442.400116,178.141953 441.119720,183.661102 439.363007,190.318604 
	C437.640564,184.286118 435.947723,179.519608 434.968536,174.610733 
	C433.927734,169.393036 431.254395,167.812790 425.814728,169.572952 
	C426.359253,171.690750 426.803986,173.859863 427.476105,175.956100 
	C429.943207,183.650513 432.485809,191.320694 435.000000,199.000000 
	C426.979095,199.000000 418.958191,199.000000 410.101105,198.849091 
	C407.374786,195.203400 405.484650,191.708633 403.592926,188.210983 
	C408.588013,184.669205 410.308563,180.616364 408.910126,175.649643 
	C407.861725,171.926178 403.144623,169.041550 397.906097,169.009262 
	C391.766113,168.971405 385.620392,169.153488 379.487457,168.942139 
	C375.945282,168.820068 374.870636,170.197937 374.942169,173.610504 
	C375.119568,182.070358 375.000153,190.536423 375.000000,199.000000 
	C365.979095,199.000000 356.958221,199.000000 347.133850,198.764954 
	C347.804504,197.267410 349.346924,196.075745 350.741394,194.730682 
	C358.422943,187.321274 356.446564,175.618652 346.815948,170.928955 
	C342.012695,168.589981 337.178558,168.007095 331.823059,168.883911 
	C324.231140,170.126862 319.192719,174.389557 317.272308,182.397141 
	C315.985535,187.762634 318.948273,193.207336 325.156891,197.115173 
	C325.641418,197.420135 325.728302,198.356888 326.000000,199.000000 
	C310.979095,199.000000 295.958221,199.000000 280.467529,198.536972 
	C279.997742,194.472366 279.997742,190.870773 279.997742,186.796143 
	C285.709167,186.796143 290.786316,186.796143 295.775787,186.796143 
	C295.775787,184.678192 295.775787,183.063568 295.775787,180.960785 
	C290.486237,180.960785 285.397583,180.960785 280.024017,180.960785 
	C280.109589,179.066193 280.172302,177.678177 280.256836,175.806641 
	C288.030060,175.806641 295.445953,175.806641 302.777069,175.806641 
	C302.777069,173.354523 302.777069,171.408188 302.777069,169.303589 
	C292.829773,169.303589 283.106171,169.303589 273.000000,169.303589 
	C273.000000,179.401428 273.000000,189.200714 273.000000,199.000000 
	C258.645782,199.000000 244.291550,199.000000 229.100357,198.860428 
	C228.196381,198.166031 228.336548,197.426727 228.031372,197.083969 
	C223.260788,191.725861 218.432678,186.418945 213.669403,181.157181 
	C218.688354,177.278625 223.148438,173.831955 227.608521,170.385284 
	C222.222412,168.797668 218.080353,168.538849 214.161530,172.109634 
	C210.087540,175.821793 205.171143,178.609467 199.787689,182.387726 
	C199.787689,177.243225 199.787689,173.187927 199.787689,168.944427 
	C197.345520,169.052246 195.416962,169.137390 193.000000,169.244110 
	C193.000000,179.439804 193.000000,189.219910 193.000000,199.000000 
	C186.312363,199.000000 179.624710,199.000000 172.468750,198.531342 
	C172.000427,188.479141 172.000427,178.895599 172.000427,169.243500 
	C169.269974,169.243500 167.345993,169.243500 164.893723,169.243500 
	C164.893723,176.162598 164.893723,182.857986 164.893723,191.077560 
	C161.142731,186.397415 158.549072,182.729538 155.513382,179.473785 
	C150.841400,174.463104 148.024414,165.946548 138.000000,169.692307 
	C138.000000,179.407532 138.000000,189.203766 138.000000,199.000000 
	C130.979050,199.000000 123.958107,199.000000 116.468658,198.531342 
	C116.000160,188.499969 116.000160,178.937256 116.000160,169.389069 
	C113.463951,169.389069 111.435356,169.389069 109.000000,169.389069 
	C109.000000,179.514206 109.000000,189.257095 109.000000,199.000000 
	C102.312355,199.000000 95.624710,199.000000 88.468178,198.531342 
	C87.999382,190.244339 88.010628,182.425980 87.995918,174.607651 
	C87.984772,168.681854 87.473930,168.318054 80.755035,169.798141 
	C80.755035,173.398605 80.755035,177.124115 80.755035,180.753723 
	C73.959320,180.753723 67.693817,180.753723 60.999599,180.753723 
	C60.999599,178.561081 61.006687,176.607834 60.998280,174.654648 
	C60.972431,168.648499 60.640091,168.400345 54.000000,169.682587 
	C54.000000,179.413788 54.000000,189.206894 54.000000,199.000000 
	C43.645771,199.000000 33.291542,199.000000 22.468586,198.531372 
	C21.999859,190.832809 21.999859,183.602890 21.999859,175.904022 
	C26.929762,175.904022 31.322245,175.904022 35.671669,175.904022 
	C35.671669,173.376892 35.671669,171.333435 35.671669,170.000000 
	C23.890928,170.000000 12.445464,170.000000 1.000000,170.000000 
	C1.000000,159.645767 1.000000,149.291550 1.468604,138.468475 
	C8.866325,137.999634 15.795443,137.999634 23.000000,137.999634 
	C23.000000,91.901627 23.000000,46.450813 23.000000,1.000000 
	C194.020889,1.000000 365.041779,1.000000 536.428223,1.351654 
	C535.782410,2.162454 534.811523,2.770648 533.753479,3.058357 
	C518.433777,7.224030 505.221283,14.806211 494.975342,27.104752 
	C486.551544,37.216175 482.006317,48.825481 480.644043,62.005997 
	C478.894867,78.929321 481.978455,94.682625 492.069702,108.256401 
	C509.904053,132.245544 535.723633,138.834991 563.912598,138.761734 
	C571.472473,138.742096 579.136108,137.440475 586.562378,135.844376 
	C601.919312,132.543793 615.182922,125.477608 624.989014,112.698959 
	C626.918030,110.185165 626.773743,108.677055 624.201599,107.113075 
	C621.361389,105.386070 618.412842,103.794044 615.766724,101.803795 
	C613.262878,99.920609 611.777222,100.798737 609.853210,102.709686 
	C606.702576,105.838898 603.616028,109.334274 599.822632,111.465149 
	C576.926697,124.326782 553.018860,125.242279 528.968567,115.418282 
	C499.876465,103.534805 490.251892,68.485962 506.092438,43.174824 
	C515.817200,27.635910 530.949951,19.832748 549.219666,17.827879 
	C572.317261,15.293213 593.202148,19.423828 610.172974,36.604156 
	C611.033203,37.475040 612.654114,38.641911 613.450928,38.356934 
	C618.362244,36.600376 623.138428,34.466232 628.793030,32.110374 
	C624.837708,27.545868 622.012085,23.357002 618.310669,20.192621 
	C608.343384,11.671498 597.028931,5.546972 584.032654,2.841115 
	C583.260803,2.680410 582.673279,1.634166 582.000000,0.999999 
	C677.020874,1.000000 772.041809,1.000000 867.372559,1.318375 
	C866.825867,2.075744 866.015320,2.707479 865.105774,2.924857 
	C851.314575,6.220831 839.511780,13.097193 829.460754,22.964537 
	C804.653748,47.318104 804.471802,90.442886 828.889160,115.525970 
	C842.689880,129.702896 859.756470,136.318420 879.131348,138.255386 
	C903.082520,140.649872 925.089844,136.313293 944.275574,120.937469 
	C966.842407,102.852158 972.619629,74.502029 965.180481,49.680607 
	C957.645142,24.538651 939.149902,10.343606 914.672729,3.052142 
	C913.361084,2.661425 912.220337,1.697227 911.000000,0.999997 
	C972.225830,1.000000 1033.451660,1.000000 1095.000000,1.000000 
	C1095.000000,22.686495 1095.000000,44.374588 1094.785400,66.893593 
	C1093.446899,67.053886 1092.237793,66.493065 1091.212280,65.695953 
	C1079.075195,56.262020 1066.928955,46.839466 1054.860229,37.318562 
	C1044.740112,29.334812 1034.765137,21.166874 1024.633057,13.198527 
	C1020.139404,9.664540 1015.758118,4.312726 1010.725159,3.498315 
	C1001.110901,1.942549 991.066284,3.046497 979.818359,3.046497 
	C1008.770142,25.657324 1036.503540,47.316589 1064.735596,69.365402 
	C1036.204712,91.685959 1008.586487,113.292511 980.263733,135.450211 
	C981.699524,135.749420 982.259094,135.966125 982.819275,135.967804 
	C991.646179,135.994232 1000.474182,136.061615 1009.298889,135.922943 
	C1010.598877,135.902512 1012.068542,135.112823 1013.143433,134.273895 
	C1018.598572,130.015915 1023.890564,125.548935 1029.347290,121.293076 
	C1049.622559,105.479767 1069.924316,89.700325 1090.277832,73.988098 
	C1091.584717,72.979225 1093.413818,72.646980 1095.000000,71.999985 
M289.208038,104.295822 
	C291.092957,106.746857 292.977875,109.197899 295.477692,112.448547 
	C317.601929,84.074860 339.135559,56.458584 360.669189,28.842314 
	C361.112885,29.003757 361.556580,29.165199 362.000275,29.326643 
	C362.000275,31.085749 362.000275,32.844852 362.000275,34.603958 
	C362.000305,64.584419 361.961395,94.564964 362.019867,124.545311 
	C362.042725,136.277771 360.573578,134.913116 372.337555,134.987137 
	C378.968384,135.028854 378.993561,134.970322 378.995544,128.370026 
	C379.005005,96.723984 379.000702,65.077942 378.999481,33.431900 
	C378.999146,25.104013 379.103546,16.773184 378.883270,8.451036 
	C378.844910,7.001075 377.488708,4.393997 376.633636,4.348631 
	C370.498688,4.023139 364.331360,4.109541 358.186401,4.361173 
	C357.129211,4.404465 355.901733,5.684360 355.137451,6.686323 
	C340.940125,25.298147 326.815155,43.965141 312.642883,62.596100 
	C307.065552,69.928108 301.409851,77.200523 295.710968,84.602547 
	C294.875122,83.855537 294.451996,83.582451 294.164825,83.205704 
	C276.153168,59.575764 258.198517,35.902077 240.094650,12.343037 
	C237.749924,9.291767 235.020676,5.212429 231.799194,4.453079 
	C226.274368,3.150791 220.220398,4.093255 214.388596,4.093255 
	C214.264038,4.633639 214.139481,5.174024 214.014923,5.714408 
	C215.265457,7.399540 216.495834,9.100071 217.769699,10.767383 
	C229.360718,25.938616 240.955872,41.106709 252.556671,56.270466 
	C264.649658,72.077591 276.750244,87.878922 289.208038,104.295822 
M692.500000,84.001190 
	C701.999390,84.001190 711.515015,84.335594 720.991821,83.872910 
	C726.476868,83.605110 729.906372,85.622658 733.027649,89.883408 
	C742.354370,102.615150 751.944580,115.155106 761.524231,127.699409 
	C763.416321,130.177094 765.487183,133.994522 767.878601,134.331177 
	C774.426147,135.252899 781.188416,134.648743 789.024170,134.648743 
	C776.189575,117.191795 764.090759,100.735634 751.661194,83.829597 
	C754.536560,83.003685 756.289062,82.527031 758.025269,81.997093 
	C766.295959,79.472641 773.687927,75.623398 778.830750,68.318207 
	C785.749268,58.490776 787.013672,47.661789 785.137268,36.044575 
	C782.040344,16.870567 767.334045,4.008018 748.034424,4.002046 
	C722.036194,3.994002 696.037842,3.963502 670.039734,4.016419 
	C658.761902,4.039374 660.086060,2.700760 660.014893,14.261671 
	C659.973572,20.964214 660.029480,20.990635 666.567017,20.993883 
	C691.232056,21.006132 715.899048,20.824438 740.560852,21.108944 
	C747.836060,21.192877 755.385193,22.154459 760.844543,27.818481 
	C768.495361,35.756142 768.326294,45.377754 764.731323,54.821819 
	C761.349365,63.706112 753.329163,66.784187 744.594849,66.890770 
	C720.266724,67.187645 695.932190,66.902969 671.601196,67.036522 
	C658.339355,67.109322 660.243591,64.712448 659.955688,79.196259 
	C659.880615,82.974464 661.428223,84.112488 665.002686,84.048439 
	C673.832581,83.890221 682.667236,83.999458 692.500000,84.001190 
M135.308060,2.998885 
	C128.809525,2.998988 122.309143,2.914471 115.813667,3.055789 
	C114.084244,3.093415 111.979568,3.322509 110.709007,4.312826 
	C98.085594,14.151899 85.652420,24.234581 73.063766,34.118870 
	C58.993599,45.166405 44.831833,56.097565 30.674944,67.034081 
	C28.277689,68.886024 27.302414,70.027306 30.605373,72.356651 
	C37.225552,77.025375 43.430603,82.282501 49.810184,87.292694 
	C58.620941,94.212219 67.421371,101.144981 76.250763,108.040665 
	C85.126282,114.972351 94.136002,121.736992 102.885071,128.824020 
	C108.101013,133.049088 112.838333,137.254166 120.521034,136.172043 
	C126.566505,135.320526 132.827896,136.024933 138.992859,135.975525 
	C139.984146,135.967590 140.972778,135.631607 142.648636,135.319504 
	C114.293434,113.145386 86.603668,91.491646 58.726944,69.691696 
	C87.094116,47.534111 114.743317,25.937332 142.392517,4.340556 
	C142.133270,3.893342 141.874039,3.446128 141.614807,2.998914 
	C139.823746,2.998914 138.032684,2.998914 135.308060,2.998885 
M432.475952,3.999295 
	C422.073303,4.078737 423.016418,2.977713 423.009766,13.315001 
	C422.985931,50.290768 422.960144,87.266624 423.022949,124.242302 
	C423.043823,136.539383 421.445709,134.875854 434.033997,134.985367 
	C440.973389,135.045746 440.994476,134.978378 440.995728,128.160660 
	C441.002808,89.352745 441.000763,50.544834 440.998199,11.736924 
	C440.997681,4.040039 440.990417,4.040040 432.475952,3.999295 
M183.583298,49.740860 
	C177.654709,48.113667 172.259796,50.124992 167.584229,53.198723 
	C159.160828,58.736282 156.015961,68.969406 158.889481,78.166649 
	C161.585358,86.795288 169.149658,93.214638 180.083588,93.349678 
	C191.445923,93.490013 202.012436,83.072754 202.029465,72.216805 
	C202.046646,61.266476 196.427338,54.035236 183.583298,49.740860 
z"/>
<path fill="#040F1C" opacity="1.000000" stroke="none" 
	d="
M910.531372,0.999997 
	C912.220337,1.697227 913.361084,2.661425 914.672729,3.052142 
	C939.149902,10.343606 957.645142,24.538651 965.180481,49.680607 
	C972.619629,74.502029 966.842407,102.852158 944.275574,120.937469 
	C925.089844,136.313293 903.082520,140.649872 879.131348,138.255386 
	C859.756470,136.318420 842.689880,129.702896 828.889160,115.525970 
	C804.471802,90.442886 804.653748,47.318104 829.460754,22.964537 
	C839.511780,13.097193 851.314575,6.220831 865.105774,2.924857 
	C866.015320,2.707479 866.825867,2.075744 867.841187,1.318375 
	C882.020874,1.000000 896.041809,1.000000 910.531372,0.999997 
z"/>
<path fill="#092342" opacity="1.000000" stroke="none" 
	d="
M581.531372,0.999999 
	C582.673279,1.634166 583.260803,2.680410 584.032654,2.841115 
	C597.028931,5.546972 608.343384,11.671498 618.310669,20.192621 
	C622.012085,23.357002 624.837708,27.545868 628.793030,32.110374 
	C623.138428,34.466232 618.362244,36.600376 613.450928,38.356934 
	C612.654114,38.641911 611.033203,37.475040 610.172974,36.604156 
	C593.202148,19.423828 572.317261,15.293213 549.219666,17.827879 
	C530.949951,19.832748 515.817200,27.635910 506.092438,43.174824 
	C490.251892,68.485962 499.876465,103.534805 528.968567,115.418282 
	C553.018860,125.242279 576.926697,124.326782 599.822632,111.465149 
	C603.616028,109.334274 606.702576,105.838898 609.853210,102.709686 
	C611.777222,100.798737 613.262878,99.920609 615.766724,101.803795 
	C618.412842,103.794044 621.361389,105.386070 624.201599,107.113075 
	C626.773743,108.677055 626.918030,110.185165 624.989014,112.698959 
	C615.182922,125.477608 601.919312,132.543793 586.562378,135.844376 
	C579.136108,137.440475 571.472473,138.742096 563.912598,138.761734 
	C535.723633,138.834991 509.904053,132.245544 492.069702,108.256401 
	C481.978455,94.682625 478.894867,78.929321 480.644043,62.005997 
	C482.006317,48.825481 486.551544,37.216175 494.975342,27.104752 
	C505.221283,14.806211 518.433777,7.224030 533.753479,3.058357 
	C534.811523,2.770648 535.782410,2.162454 536.896912,1.351654 
	C551.687561,1.000000 566.375122,1.000000 581.531372,0.999999 
z"/>
<path fill="#00A0E0" opacity="1.000000" stroke="none" 
	d="
M1095.000000,71.583328 
	C1093.413818,72.646980 1091.584717,72.979225 1090.277832,73.988098 
	C1069.924316,89.700325 1049.622559,105.479767 1029.347290,121.293076 
	C1023.890564,125.548935 1018.598572,130.015915 1013.143433,134.273895 
	C1012.068542,135.112823 1010.598877,135.902512 1009.298889,135.922943 
	C1000.474182,136.061615 991.646179,135.994232 982.819275,135.967804 
	C982.259094,135.966125 981.699524,135.749420 980.263733,135.450211 
	C1008.586487,113.292511 1036.204712,91.685959 1064.735596,69.365402 
	C1036.503540,47.316589 1008.770142,25.657324 979.818359,3.046497 
	C991.066284,3.046497 1001.110901,1.942549 1010.725159,3.498315 
	C1015.758118,4.312726 1020.139404,9.664540 1024.633057,13.198527 
	C1034.765137,21.166874 1044.740112,29.334812 1054.860229,37.318562 
	C1066.928955,46.839466 1079.075195,56.262020 1091.212280,65.695953 
	C1092.237793,66.493065 1093.446899,67.053886 1094.785400,67.362251 
	C1095.000000,68.388893 1095.000000,69.777779 1095.000000,71.583328 
z"/>
<path fill="#00A0E0" opacity="1.000000" stroke="none" 
	d="
M22.531218,1.000000 
	C23.000000,46.450813 23.000000,91.901627 23.000000,137.999634 
	C15.795443,137.999634 8.866325,137.999634 1.468604,137.999817 
	C1.000000,92.333298 1.000000,46.666599 1.000000,1.000000 
	C8.101086,1.000000 15.081760,1.000000 22.531218,1.000000 
z"/>
<path fill="#009FDF" opacity="1.000000" stroke="none" 
	d="
M435.444153,199.000000 
	C432.485809,191.320694 429.943207,183.650513 427.476105,175.956100 
	C426.803986,173.859863 426.359253,171.690750 425.814728,169.572952 
	C431.254395,167.812790 433.927734,169.393036 434.968536,174.610733 
	C435.947723,179.519608 437.640564,184.286118 439.363007,190.318604 
	C441.119720,183.661102 442.400116,178.141953 444.111847,172.759995 
	C444.577759,171.295090 446.166992,169.494217 447.551117,169.169006 
	C449.921844,168.611984 452.950684,168.178680 453.939636,171.741089 
	C455.327576,176.740799 456.646820,181.759735 458.065002,186.750687 
	C458.265839,187.457611 458.858917,188.053070 459.294891,188.738434 
	C461.382721,182.101349 463.399261,175.690887 465.453003,169.162125 
	C467.506989,169.162125 469.458221,169.162125 472.817047,169.162125 
	C469.571777,179.217087 466.486450,188.776596 463.700562,198.668060 
	C461.299988,199.000000 458.599976,199.000000 455.438904,198.600891 
	C453.176910,191.905991 451.375946,185.610184 449.294342,178.333282 
	C447.019226,185.803360 445.009613,192.401672 443.000000,199.000000 
	C440.629425,199.000000 438.258881,199.000000 435.444153,199.000000 
z"/>
<path fill="#00A0E0" opacity="1.000000" stroke="none" 
	d="
M375.444153,199.000000 
	C375.000153,190.536423 375.119568,182.070358 374.942169,173.610504 
	C374.870636,170.197937 375.945282,168.820068 379.487457,168.942139 
	C385.620392,169.153488 391.766113,168.971405 397.906097,169.009262 
	C403.144623,169.041550 407.861725,171.926178 408.910126,175.649643 
	C410.308563,180.616364 408.588013,184.669205 403.592926,188.210983 
	C405.484650,191.708633 407.374786,195.203400 409.632446,198.849091 
	C407.299988,199.000000 404.599976,199.000000 401.443970,198.634842 
	C394.965118,187.479401 396.277618,188.530579 383.000000,189.496841 
	C383.000000,192.630753 383.000000,195.815384 383.000000,199.000000 
	C380.629425,199.000000 378.258881,199.000000 375.444153,199.000000 
M383.152740,181.313309 
	C388.579407,181.533295 394.007263,181.885162 399.431458,181.835449 
	C400.274994,181.827744 401.978943,179.649918 401.753815,179.062653 
	C401.283569,177.836060 399.839203,176.210419 398.710083,176.141571 
	C393.610107,175.830597 388.480469,176.005722 383.023315,176.005722 
	C383.023315,177.800323 383.023315,179.094528 383.152740,181.313309 
z"/>
<path fill="#00A0DF" opacity="1.000000" stroke="none" 
	d="
M541.437500,199.000000 
	C541.000000,189.233139 541.000000,179.466278 541.000000,169.058380 
	C549.776123,169.058380 558.351807,168.654037 566.859619,169.238861 
	C570.772644,169.507843 574.074097,172.432648 574.889160,176.699844 
	C575.847473,181.717377 573.718262,185.588669 569.538391,188.449936 
	C571.304382,191.618881 573.151672,194.933670 574.999512,198.624237 
	C572.629456,199.000000 570.258850,199.000000 567.785400,198.770325 
	C566.097229,196.297287 564.627991,193.960068 562.903809,191.829147 
	C558.723999,186.663361 553.224792,189.790131 548.000000,189.019135 
	C548.000000,192.771927 548.000000,195.885956 548.000000,199.000000 
	C545.958313,199.000000 543.916687,199.000000 541.437500,199.000000 
M564.802307,176.033325 
	C559.345581,176.033325 553.888916,176.033325 548.267700,176.033325 
	C548.267700,178.176865 548.267700,179.896225 548.267700,181.996567 
	C553.486267,181.996567 558.456909,182.124359 563.413757,181.919403 
	C564.918335,181.857208 566.384949,180.875824 567.868958,180.315414 
	C567.129761,178.948608 566.390503,177.581802 564.802307,176.033325 
z"/>
<path fill="#00A0E0" opacity="1.000000" stroke="none" 
	d="
M595.468628,199.000000 
	C595.000000,189.232773 595.000000,179.465546 595.000000,168.954544 
	C605.334229,169.928711 615.642517,166.609131 625.324280,172.593582 
	C630.979553,176.089233 631.608154,181.225418 630.850769,186.628036 
	C630.190430,191.337799 627.780884,195.459778 622.696777,197.162125 
	C622.151123,197.344833 621.774780,198.033264 621.659912,198.743546 
	C613.312439,199.000000 604.624817,199.000000 595.468628,199.000000 
M623.678223,182.206085 
	C618.727661,172.235229 609.830750,177.127396 602.311218,175.958130 
	C602.311218,181.601105 602.311218,186.645386 602.311218,192.000092 
	C606.747009,192.000092 610.874695,192.024841 615.002014,191.994232 
	C621.001587,191.949753 623.762207,189.140213 623.678223,182.206085 
z"/>
<path fill="#009FDF" opacity="1.000000" stroke="none" 
	d="
M138.437500,199.000000 
	C138.000000,189.203766 138.000000,179.407532 138.000000,169.692307 
	C148.024414,165.946548 150.841400,174.463104 155.513382,179.473785 
	C158.549072,182.729538 161.142731,186.397415 164.893723,191.077560 
	C164.893723,182.857986 164.893723,176.162598 164.893723,169.243500 
	C167.345993,169.243500 169.269974,169.243500 172.000427,169.243500 
	C172.000427,178.895599 172.000427,188.479141 172.000214,198.531342 
	C168.638718,199.000000 165.277420,199.000000 161.805206,198.775146 
	C156.401489,191.907867 151.108704,185.265442 145.000000,177.599030 
	C145.000000,185.597504 145.000000,192.298752 145.000000,199.000000 
	C142.958328,199.000000 140.916672,199.000000 138.437500,199.000000 
z"/>
<path fill="#009FDF" opacity="1.000000" stroke="none" 
	d="
M326.468536,199.000000 
	C325.728302,198.356888 325.641418,197.420135 325.156891,197.115173 
	C318.948273,193.207336 315.985535,187.762634 317.272308,182.397141 
	C319.192719,174.389557 324.231140,170.126862 331.823059,168.883911 
	C337.178558,168.007095 342.012695,168.589981 346.815948,170.928955 
	C356.446564,175.618652 358.422943,187.321274 350.741394,194.730682 
	C349.346924,196.075745 347.804504,197.267410 346.665192,198.764954 
	C340.312347,199.000000 333.624725,199.000000 326.468536,199.000000 
M347.707428,186.777634 
	C349.133881,181.829712 346.957153,178.322800 342.708313,176.399643 
	C337.528717,174.055191 332.248169,174.178452 327.543396,177.973740 
	C324.568512,180.373550 323.733490,186.980713 326.329956,189.521790 
	C331.640778,194.719315 344.208496,194.579529 347.707428,186.777634 
z"/>
<path fill="#009FDF" opacity="1.000000" stroke="none" 
	d="
M193.437500,199.000000 
	C193.000000,189.219910 193.000000,179.439804 193.000000,169.244110 
	C195.416962,169.137390 197.345520,169.052246 199.787689,168.944427 
	C199.787689,173.187927 199.787689,177.243225 199.787689,182.387726 
	C205.171143,178.609467 210.087540,175.821793 214.161530,172.109634 
	C218.080353,168.538849 222.222412,168.797668 227.608521,170.385284 
	C223.148438,173.831955 218.688354,177.278625 213.669403,181.157181 
	C218.432678,186.418945 223.260788,191.725861 228.031372,197.083969 
	C228.336548,197.426727 228.196381,198.166031 228.631699,198.860428 
	C225.969406,199.000000 222.938812,199.000000 219.794403,198.776886 
	C216.460190,195.037979 212.923340,191.753754 210.124786,187.929276 
	C208.080597,185.135712 206.481598,186.260971 204.326889,187.228546 
	C198.805450,189.707932 200.058060,194.572525 200.000000,199.000000 
	C197.958328,199.000000 195.916672,199.000000 193.437500,199.000000 
z"/>
<path fill="#009FDF" opacity="1.000000" stroke="none" 
	d="
M485.444153,199.000000 
	C489.954529,189.554993 494.747070,180.019302 499.955261,170.716293 
	C501.679352,167.636597 507.819855,168.101639 509.642517,171.374924 
	C514.583008,180.247345 519.230103,189.283157 523.996765,198.627075 
	C521.629456,199.000000 519.258850,199.000000 516.436157,198.620880 
	C514.914001,194.154572 512.377258,192.418579 508.098328,192.951706 
	C505.836243,193.233551 503.472321,193.267334 501.220703,192.946884 
	C496.362518,192.255463 494.004974,194.628189 493.000000,199.000000 
	C490.629425,199.000000 488.258881,199.000000 485.444153,199.000000 
M509.054138,185.383270 
	C507.533600,182.487610 506.013031,179.591949 504.569153,176.842331 
	C502.832275,180.147659 501.121857,183.402634 498.968628,187.500290 
	C502.975067,186.947357 506.195312,186.502945 509.054138,185.383270 
z"/>
<path fill="#00A0E0" opacity="1.000000" stroke="none" 
	d="
M54.437500,199.000000 
	C54.000000,189.206894 54.000000,179.413788 54.000000,169.682587 
	C60.640091,168.400345 60.972431,168.648499 60.998280,174.654648 
	C61.006687,176.607834 60.999599,178.561081 60.999599,180.753723 
	C67.693817,180.753723 73.959320,180.753723 80.755035,180.753723 
	C80.755035,177.124115 80.755035,173.398605 80.755035,169.798141 
	C87.473930,168.318054 87.984772,168.681854 87.995918,174.607651 
	C88.010628,182.425980 87.999382,190.244339 87.999649,198.531342 
	C85.958336,199.000000 83.916664,199.000000 81.437614,198.536972 
	C81.000229,194.474045 81.000229,190.874130 81.000229,187.363159 
	C73.964539,187.363159 67.573540,187.363159 61.000000,187.363159 
	C61.000000,191.483200 61.000000,195.241608 61.000000,199.000000 
	C58.958332,199.000000 56.916668,199.000000 54.437500,199.000000 
z"/>
<path fill="#00A0E0" opacity="1.000000" stroke="none" 
	d="
M273.437500,199.000000 
	C273.000000,189.200714 273.000000,179.401428 273.000000,169.303589 
	C283.106171,169.303589 292.829773,169.303589 302.777069,169.303589 
	C302.777069,171.408188 302.777069,173.354523 302.777069,175.806641 
	C295.445953,175.806641 288.030060,175.806641 280.256836,175.806641 
	C280.172302,177.678177 280.109589,179.066193 280.024017,180.960785 
	C285.397583,180.960785 290.486237,180.960785 295.775787,180.960785 
	C295.775787,183.063568 295.775787,184.678192 295.775787,186.796143 
	C290.786316,186.796143 285.709167,186.796143 279.997742,186.796143 
	C279.997742,190.870773 279.997742,194.472366 279.998871,198.536972 
	C277.958344,199.000000 275.916656,199.000000 273.437500,199.000000 
z"/>
<path fill="#00A0E0" opacity="1.000000" stroke="none" 
	d="
M1.000000,170.428467 
	C12.445464,170.000000 23.890928,170.000000 35.671669,170.000000 
	C35.671669,171.333435 35.671669,173.376892 35.671669,175.904022 
	C31.322245,175.904022 26.929762,175.904022 21.999859,175.904022 
	C21.999859,183.602890 21.999859,190.832809 21.999929,198.531372 
	C20.285643,199.000000 18.571283,199.000000 16.428780,198.531372 
	C16.000633,190.859299 16.000633,183.655869 16.000633,176.000000 
	C10.690315,176.000000 5.845158,176.000000 1.000000,176.000000 
	C1.000000,174.285645 1.000000,172.571289 1.000000,170.428467 
z"/>
<path fill="#000000" opacity="1.000000" stroke="none" 
	d="
M1.000000,176.468735 
	C5.845158,176.000000 10.690315,176.000000 16.000633,176.000000 
	C16.000633,183.655869 16.000633,190.859299 16.000317,198.531372 
	C11.058330,199.000000 6.116659,199.000000 1.000000,199.000000 
	C1.000000,191.646500 1.000000,184.291992 1.000000,176.468735 
z"/>
<path fill="#000000" opacity="1.000000" stroke="none" 
	d="
M61.468403,199.000000 
	C61.000000,195.241608 61.000000,191.483200 61.000000,187.363159 
	C67.573540,187.363159 73.964539,187.363159 81.000229,187.363159 
	C81.000229,190.874130 81.000229,194.474045 81.000114,198.536972 
	C74.645599,199.000000 68.291206,199.000000 61.468403,199.000000 
z"/>
<path fill="#00A0DF" opacity="1.000000" stroke="none" 
	d="
M109.437500,199.000000 
	C109.000000,189.257095 109.000000,179.514206 109.000000,169.389069 
	C111.435356,169.389069 113.463951,169.389069 116.000160,169.389069 
	C116.000160,178.937256 116.000160,188.499969 116.000076,198.531342 
	C113.958336,199.000000 111.916664,199.000000 109.437500,199.000000 
z"/>
<path fill="#000000" opacity="1.000000" stroke="none" 
	d="
M145.466858,199.000000 
	C145.000000,192.298752 145.000000,185.597504 145.000000,177.599030 
	C151.108704,185.265442 156.401489,191.907867 161.347137,198.775146 
	C155.977905,199.000000 150.955811,199.000000 145.466858,199.000000 
z"/>
<path fill="#000000" opacity="1.000000" stroke="none" 
	d="
M200.468277,199.000000 
	C200.058060,194.572525 198.805450,189.707932 204.326889,187.228546 
	C206.481598,186.260971 208.080597,185.135712 210.124786,187.929276 
	C212.923340,191.753754 216.460190,195.037979 219.340302,198.776886 
	C212.978851,199.000000 206.957703,199.000000 200.468277,199.000000 
z"/>
<path fill="#000000" opacity="1.000000" stroke="none" 
	d="
M548.468262,199.000000 
	C548.000000,195.885956 548.000000,192.771927 548.000000,189.019135 
	C553.224792,189.790131 558.723999,186.663361 562.903809,191.829147 
	C564.627991,193.960068 566.097229,196.297287 567.341187,198.770325 
	C560.978821,199.000000 554.957703,199.000000 548.468262,199.000000 
z"/>
<path fill="#000000" opacity="1.000000" stroke="none" 
	d="
M383.467957,199.000000 
	C383.000000,195.815384 383.000000,192.630753 383.000000,189.496841 
	C396.277618,188.530579 394.965118,187.479401 400.993958,198.634842 
	C395.311951,199.000000 389.623932,199.000000 383.467957,199.000000 
z"/>
<path fill="#000000" opacity="1.000000" stroke="none" 
	d="
M443.460632,199.000000 
	C445.009613,192.401672 447.019226,185.803360 449.294342,178.333282 
	C451.375946,185.610184 453.176910,191.905991 454.988922,198.600891 
	C451.307098,199.000000 447.614166,199.000000 443.460632,199.000000 
z"/>
<path fill="#000000" opacity="1.000000" stroke="none" 
	d="
M493.468628,199.000000 
	C494.004974,194.628189 496.362518,192.255463 501.220703,192.946884 
	C503.472321,193.267334 505.836243,193.233551 508.098328,192.951706 
	C512.377258,192.418579 514.914001,194.154572 515.991943,198.620880 
	C508.645752,199.000000 501.291504,199.000000 493.468628,199.000000 
z"/>
<path fill="#092342" opacity="1.000000" stroke="none" 
	d="
M289.027771,103.989304 
	C276.750244,87.878922 264.649658,72.077591 252.556671,56.270466 
	C240.955872,41.106709 229.360718,25.938616 217.769699,10.767383 
	C216.495834,9.100071 215.265457,7.399540 214.014923,5.714408 
	C214.139481,5.174024 214.264038,4.633639 214.388596,4.093255 
	C220.220398,4.093255 226.274368,3.150791 231.799194,4.453079 
	C235.020676,5.212429 237.749924,9.291767 240.094650,12.343037 
	C258.198517,35.902077 276.153168,59.575764 294.164825,83.205704 
	C294.451996,83.582451 294.875122,83.855537 295.710968,84.602547 
	C301.409851,77.200523 307.065552,69.928108 312.642883,62.596100 
	C326.815155,43.965141 340.940125,25.298147 355.137451,6.686323 
	C355.901733,5.684360 357.129211,4.404465 358.186401,4.361173 
	C364.331360,4.109541 370.498688,4.023139 376.633636,4.348631 
	C377.488708,4.393997 378.844910,7.001075 378.883270,8.451036 
	C379.103546,16.773184 378.999146,25.104013 378.999481,33.431900 
	C379.000702,65.077942 379.005005,96.723984 378.995544,128.370026 
	C378.993561,134.970322 378.968384,135.028854 372.337555,134.987137 
	C360.573578,134.913116 362.042725,136.277771 362.019867,124.545311 
	C361.961395,94.564964 362.000305,64.584419 362.000275,34.603958 
	C362.000275,32.844852 362.000275,31.085749 362.000275,29.326643 
	C361.556580,29.165199 361.112885,29.003757 360.669189,28.842314 
	C339.135559,56.458584 317.601929,84.074860 295.477692,112.448547 
	C292.977875,109.197899 291.092957,106.746857 289.027771,103.989304 
z"/>
<path fill="#092342" opacity="1.000000" stroke="none" 
	d="
M692.000000,84.001190 
	C682.667236,83.999458 673.832581,83.890221 665.002686,84.048439 
	C661.428223,84.112488 659.880615,82.974464 659.955688,79.196259 
	C660.243591,64.712448 658.339355,67.109322 671.601196,67.036522 
	C695.932190,66.902969 720.266724,67.187645 744.594849,66.890770 
	C753.329163,66.784187 761.349365,63.706112 764.731323,54.821819 
	C768.326294,45.377754 768.495361,35.756142 760.844543,27.818481 
	C755.385193,22.154459 747.836060,21.192877 740.560852,21.108944 
	C715.899048,20.824438 691.232056,21.006132 666.567017,20.993883 
	C660.029480,20.990635 659.973572,20.964214 660.014893,14.261671 
	C660.086060,2.700760 658.761902,4.039374 670.039734,4.016419 
	C696.037842,3.963502 722.036194,3.994002 748.034424,4.002046 
	C767.334045,4.008018 782.040344,16.870567 785.137268,36.044575 
	C787.013672,47.661789 785.749268,58.490776 778.830750,68.318207 
	C773.687927,75.623398 766.295959,79.472641 758.025269,81.997093 
	C756.289062,82.527031 754.536560,83.003685 751.661194,83.829597 
	C764.090759,100.735634 776.189575,117.191795 789.024170,134.648743 
	C781.188416,134.648743 774.426147,135.252899 767.878601,134.331177 
	C765.487183,133.994522 763.416321,130.177094 761.524231,127.699409 
	C751.944580,115.155106 742.354370,102.615150 733.027649,89.883408 
	C729.906372,85.622658 726.476868,83.605110 720.991821,83.872910 
	C711.515015,84.335594 701.999390,84.001190 692.000000,84.001190 
z"/>
<path fill="#00A0DF" opacity="1.000000" stroke="none" 
	d="
M135.774841,2.998899 
	C138.032684,2.998914 139.823746,2.998914 141.614807,2.998914 
	C141.874039,3.446128 142.133270,3.893342 142.392517,4.340556 
	C114.743317,25.937332 87.094116,47.534111 58.726944,69.691696 
	C86.603668,91.491646 114.293434,113.145386 142.648636,135.319504 
	C140.972778,135.631607 139.984146,135.967590 138.992859,135.975525 
	C132.827896,136.024933 126.566505,135.320526 120.521034,136.172043 
	C112.838333,137.254166 108.101013,133.049088 102.885071,128.824020 
	C94.136002,121.736992 85.126282,114.972351 76.250763,108.040665 
	C67.421371,101.144981 58.620941,94.212219 49.810184,87.292694 
	C43.430603,82.282501 37.225552,77.025375 30.605373,72.356651 
	C27.302414,70.027306 28.277689,68.886024 30.674944,67.034081 
	C44.831833,56.097565 58.993599,45.166405 73.063766,34.118870 
	C85.652420,24.234581 98.085594,14.151899 110.709007,4.312826 
	C111.979568,3.322509 114.084244,3.093415 115.813667,3.055789 
	C122.309143,2.914471 128.809525,2.998988 135.774841,2.998899 
z"/>
<path fill="#092342" opacity="1.000000" stroke="none" 
	d="
M432.950806,3.999322 
	C440.990417,4.040040 440.997681,4.040039 440.998199,11.736924 
	C441.000763,50.544834 441.002808,89.352745 440.995728,128.160660 
	C440.994476,134.978378 440.973389,135.045746 434.033997,134.985367 
	C421.445709,134.875854 423.043823,136.539383 423.022949,124.242302 
	C422.960144,87.266624 422.985931,50.290768 423.009766,13.315001 
	C423.016418,2.977713 422.073303,4.078737 432.950806,3.999322 
z"/>
<path fill="#092342" opacity="1.000000" stroke="none" 
	d="
M183.970795,49.851982 
	C196.427338,54.035236 202.046646,61.266476 202.029465,72.216805 
	C202.012436,83.072754 191.445923,93.490013 180.083588,93.349678 
	C169.149658,93.214638 161.585358,86.795288 158.889481,78.166649 
	C156.015961,68.969406 159.160828,58.736282 167.584229,53.198723 
	C172.259796,50.124992 177.654709,48.113667 183.970795,49.851982 
z"/>
<path fill="#000000" opacity="1.000000" stroke="none" 
	d="
M383.088013,180.851013 
	C383.023315,179.094528 383.023315,177.800323 383.023315,176.005722 
	C388.480469,176.005722 393.610107,175.830597 398.710083,176.141571 
	C399.839203,176.210419 401.283569,177.836060 401.753815,179.062653 
	C401.978943,179.649918 400.274994,181.827744 399.431458,181.835449 
	C394.007263,181.885162 388.579407,181.533295 383.088013,180.851013 
z"/>
<path fill="#000000" opacity="1.000000" stroke="none" 
	d="
M565.226807,176.124146 
	C566.390503,177.581802 567.129761,178.948608 567.868958,180.315430 
	C566.384949,180.875824 564.918335,181.857208 563.413757,181.919403 
	C558.456909,182.124359 553.486267,181.996567 548.267700,181.996567 
	C548.267700,179.896225 548.267700,178.176865 548.267700,176.033325 
	C553.888916,176.033325 559.345581,176.033325 565.226807,176.124146 
z"/>
<path fill="#000000" opacity="1.000000" stroke="none" 
	d="
M623.814026,182.577805 
	C623.762207,189.140213 621.001587,191.949753 615.002014,191.994232 
	C610.874695,192.024841 606.747009,192.000092 602.311218,192.000092 
	C602.311218,186.645386 602.311218,181.601105 602.311218,175.958130 
	C609.830750,177.127396 618.727661,172.235229 623.814026,182.577805 
z"/>
<path fill="#000000" opacity="1.000000" stroke="none" 
	d="
M347.439819,187.073914 
	C344.208496,194.579529 331.640778,194.719315 326.329956,189.521790 
	C323.733490,186.980713 324.568512,180.373550 327.543396,177.973740 
	C332.248169,174.178452 337.528717,174.055191 342.708313,176.399643 
	C346.957153,178.322800 349.133881,181.829712 347.439819,187.073914 
z"/>
<path fill="#000000" opacity="1.000000" stroke="none" 
	d="
M509.234833,185.720901 
	C506.195312,186.502945 502.975067,186.947357 498.968628,187.500290 
	C501.121857,183.402634 502.832275,180.147659 504.569153,176.842331 
	C506.013031,179.591949 507.533600,182.487610 509.234833,185.720901 
z"/>
</svg>